<svg xmlns="http://www.w3.org/2000/svg">
<symbol id="like-button" width="26" height="24" viewBox="0 0 26 24" xmlns="http://www.w3.org/2000/svg">
<path d="M12.9266 22.9405C12.9559 22.9703 12.9853 22.9703 12.9853 23C17.0392 19.7595 25 13.6946 25 7.36216C25 3.85405 22.1799 1 18.7136 1C16.246 1 14.1016 2.45676 13.0734 4.56757C13.0441 4.62703 12.9853 4.77568 12.9853 4.77568C12.9853 4.77568 12.9266 4.65676 12.9266 4.62703C11.9278 2.48649 9.78335 1 7.28641 1C3.82007 1 1 3.85405 1 7.36216C1 13.7541 8.93146 19.7297 12.9266 22.9405Z" stroke-width="2" stroke-linejoin="round"/>
</symbol>

<symbol id="map-pointer" width="17" height="21" viewBox="0 0 17 21" fill="none" xmlns="http://www.w3.org/2000/svg">
<g opacity="0.8">
<path d="M16 8.8C16 14.8 8.5 19 8.5 19C8.5 19 1 15.4 1 8.8C1 4.492 4.35769 1 8.5 1C12.6423 1 16 4.492 16 8.8Z" stroke="#818181" stroke-width="2"/>
<path d="M8.5 10.36C9.60457 10.36 10.5 9.42877 10.5 8.28001C10.5 7.13126 9.60457 6.20001 8.5 6.20001C7.39543 6.20001 6.5 7.13126 6.5 8.28001C6.5 9.42877 7.39543 10.36 8.5 10.36Z" stroke="#818181" stroke-width="2"/>
</g>
</symbol>

<symbol id="route" width="16" height="17" viewBox="0 0 16 17" fill="none" xmlns="http://www.w3.org/2000/svg">
<g opacity="0.8">
<path d="M4.95109 13.9892H11.6468C13.1649 13.9892 14.3914 12.7627 14.3914 11.2446C14.3914 9.72651 13.1649 8.49997 11.6468 8.49997H4.2775C2.75941 8.49997 1.53287 7.27343 1.53287 5.75534C1.53287 4.23725 2.75941 3.01071 4.2775 3.01071H10.0684" stroke="#818181" stroke-width="2"/>
<path d="M3.01072 16C4.12121 16 5.02144 15.0998 5.02144 13.9893C5.02144 12.8788 4.12121 11.9786 3.01072 11.9786C1.90023 11.9786 1 12.8788 1 13.9893C1 15.0998 1.90023 16 3.01072 16Z" stroke="#818181" stroke-width="2"/>
<path d="M12.3707 5.02144C13.4812 5.02144 14.3814 4.12121 14.3814 3.01072C14.3814 1.90023 13.4812 1 12.3707 1C11.2602 1 10.36 1.90023 10.36 3.01072C10.36 4.12121 11.2602 5.02144 12.3707 5.02144Z" stroke="#818181" stroke-width="2"/>
</g>
</symbol>

<symbol id="metro" width="22" height="14" viewBox="0 0 22 14" fill="none" xmlns="http://www.w3.org/2000/svg">
<g opacity="0.8">
<path d="M18.7171 12.3305L15.1409 2.33051L11.0843 9.11358L7.02765 2.33051L3.45143 12.3305" stroke="#818181" stroke-width="2"/>
<path d="M15.0969 12.3305H22.0002" stroke="#818181" stroke-width="2"/>
<path d="M0 12.3305H6.90335" stroke="#818181" stroke-width="2"/>
</g>
</symbol>

<symbol id="star" width="15" height="14" viewBox="0 0 15 14" fill="none" xmlns="http://www.w3.org/2000/svg">
<path fill-rule="evenodd" clip-rule="evenodd" d="M7.26719 11.4926C7.12153 11.416 6.94751 11.416 6.80185 11.4926L3.22897 13.3709C2.86216 13.5638 2.43344 13.2523 2.5035 12.8438L3.18586 8.86539C3.21368 8.70319 3.1599 8.53769 3.04206 8.42282L0.15154 5.60527C-0.145218 5.316 0.0185377 4.81201 0.428648 4.75242L4.42324 4.17197C4.5861 4.14831 4.72688 4.04602 4.79971 3.89845L6.58615 0.278731C6.76956 -0.0928918 7.29948 -0.0928907 7.48289 0.278732L9.26932 3.89845C9.34216 4.04602 9.48294 4.14831 9.64579 4.17197L13.6404 4.75242C14.0505 4.81201 14.2143 5.316 13.9175 5.60527L11.027 8.42282C10.9091 8.53769 10.8554 8.70319 10.8832 8.86539L11.5655 12.8438C11.6356 13.2523 11.2069 13.5638 10.8401 13.3709L7.26719 11.4926Z" fill="#FDD91C"/>
</symbol>

<symbol id="empty_star" width="15" height="14" viewBox="0 0 15 14" fill="none" xmlns="http://www.w3.org/2000/svg">
<path fill-rule="evenodd" clip-rule="evenodd" d="M7.26722 11.4926C7.12155 11.416 6.94754 11.416 6.80188 11.4926L3.229 13.3709C2.86219 13.5638 2.43347 13.2523 2.50353 12.8438L3.18588 8.86539C3.2137 8.70319 3.15993 8.53769 3.04209 8.42282L0.151568 5.60527C-0.145191 5.316 0.018565 4.81201 0.428675 4.75242L4.42327 4.17197C4.58613 4.14831 4.72691 4.04602 4.79974 3.89845L6.58618 0.278731C6.76959 -0.0928918 7.29951 -0.0928907 7.48291 0.278732L9.26935 3.89845C9.34218 4.04602 9.48297 4.14831 9.64582 4.17197L13.6404 4.75242C14.0505 4.81201 14.2143 5.316 13.9175 5.60527L11.027 8.42282C10.9092 8.53769 10.8554 8.70319 10.8832 8.86539L11.5656 12.8438C11.6356 13.2523 11.2069 13.5638 10.8401 13.3709L7.26722 11.4926Z" fill="#E9E9E9"/>
</symbol>

</svg>

